<mxfile host="65bd71144e">
    <diagram id="INefliVkgqZ9nt32G_3S" name="Page-1">
        <mxGraphModel dx="403" dy="184" grid="1" gridSize="10" guides="1" tooltips="1" connect="1" arrows="1" fold="1" page="1" pageScale="1" pageWidth="500" pageHeight="600" math="0" shadow="0">
            <root>
                <mxCell id="0"/>
                <mxCell id="1" parent="0"/>
                <mxCell id="4" style="edgeStyle=none;html=1;exitX=0.5;exitY=1;exitDx=0;exitDy=0;" edge="1" parent="1" source="2" target="5">
                    <mxGeometry relative="1" as="geometry">
                        <mxPoint x="390" y="70" as="targetPoint"/>
                    </mxGeometry>
                </mxCell>
                <mxCell id="11" value="" style="edgeStyle=none;html=1;" edge="1" parent="1" source="5" target="9">
                    <mxGeometry relative="1" as="geometry"/>
                </mxCell>
                <mxCell id="12" style="edgeStyle=none;html=1;" edge="1" parent="1" source="10" target="13">
                    <mxGeometry relative="1" as="geometry">
                        <mxPoint x="360" y="370" as="targetPoint"/>
                    </mxGeometry>
                </mxCell>
                <mxCell id="13" value="" style="rounded=0;whiteSpace=wrap;html=1;" vertex="1" parent="1">
                    <mxGeometry x="180" y="471" width="140" height="60" as="geometry"/>
                </mxCell>
                <mxCell id="17" value="Jenkins SERVER" style="text;html=1;strokeColor=none;fillColor=none;align=right;verticalAlign=middle;whiteSpace=wrap;rounded=0;" vertex="1" parent="1">
                    <mxGeometry x="110" y="175.5" width="60" height="30" as="geometry"/>
                </mxCell>
                <mxCell id="21" value="Jenkins AGENT" style="text;html=1;strokeColor=none;fillColor=none;align=right;verticalAlign=middle;whiteSpace=wrap;rounded=0;" vertex="1" parent="1">
                    <mxGeometry x="110" y="273" width="60" height="30" as="geometry"/>
                </mxCell>
                <mxCell id="23" value="Sistema Linux" style="text;html=1;strokeColor=none;fillColor=none;align=right;verticalAlign=middle;whiteSpace=wrap;rounded=0;" vertex="1" parent="1">
                    <mxGeometry x="110" y="373.5" width="60" height="30" as="geometry"/>
                </mxCell>
                <mxCell id="25" value="Output del Pipeline" style="text;html=1;strokeColor=none;fillColor=none;align=right;verticalAlign=middle;whiteSpace=wrap;rounded=0;" vertex="1" parent="1">
                    <mxGeometry x="110" y="486" width="60" height="30" as="geometry"/>
                </mxCell>
                <mxCell id="26" value="&lt;div style=&quot;line-height: 16px;&quot;&gt;&lt;div style=&quot;&quot;&gt;- Logs de consola&lt;/div&gt;&lt;div style=&quot;&quot;&gt;- Archivo: bienvenida.html&lt;/div&gt;&lt;/div&gt;" style="text;html=1;strokeColor=none;fillColor=none;align=center;verticalAlign=middle;whiteSpace=wrap;rounded=0;" vertex="1" parent="1">
                    <mxGeometry x="193.75" y="486" width="112.5" height="30" as="geometry"/>
                </mxCell>
                <mxCell id="27" value="" style="group" vertex="1" connectable="0" parent="1">
                    <mxGeometry x="180" y="364" width="140" height="49" as="geometry"/>
                </mxCell>
                <mxCell id="10" value="" style="rounded=0;whiteSpace=wrap;html=1;" vertex="1" parent="27">
                    <mxGeometry width="140" height="49" as="geometry"/>
                </mxCell>
                <mxCell id="24" value="&lt;div style=&quot;line-height: 16px;&quot;&gt;&lt;div style=&quot;&quot;&gt;Gestión de Usuarios&lt;/div&gt;&lt;/div&gt;" style="text;html=1;strokeColor=none;fillColor=none;align=center;verticalAlign=middle;whiteSpace=wrap;rounded=0;" vertex="1" parent="27">
                    <mxGeometry x="8.75" y="12.25" width="122.49999999999999" height="24.5" as="geometry"/>
                </mxCell>
                <mxCell id="32" value="Acceden vía navegador web" style="text;html=1;strokeColor=none;fillColor=none;align=center;verticalAlign=middle;whiteSpace=wrap;rounded=0;labelBackgroundColor=none;fontFamily=Helvetica;" vertex="1" parent="1">
                    <mxGeometry x="248" y="123" width="170" height="30" as="geometry"/>
                </mxCell>
                <mxCell id="33" value="" style="group" vertex="1" connectable="0" parent="1">
                    <mxGeometry x="180" y="168" width="140" height="45" as="geometry"/>
                </mxCell>
                <mxCell id="5" value="" style="rounded=0;whiteSpace=wrap;html=1;" vertex="1" parent="33">
                    <mxGeometry width="140" height="45" as="geometry"/>
                </mxCell>
                <mxCell id="20" value="&lt;div style=&quot;line-height: 16px;&quot;&gt;&lt;div style=&quot;&quot;&gt;Job: CrearUsuario&lt;/div&gt;&lt;div style=&quot;&quot;&gt;Job: EliminarUsuario&lt;/div&gt;&lt;/div&gt;" style="text;html=1;strokeColor=none;fillColor=none;align=center;verticalAlign=middle;whiteSpace=wrap;rounded=0;" vertex="1" parent="33">
                    <mxGeometry x="5" y="11.25" width="130" height="22.5" as="geometry"/>
                </mxCell>
                <mxCell id="34" value="" style="group" vertex="1" connectable="0" parent="1">
                    <mxGeometry x="180" y="72" width="140" height="40" as="geometry"/>
                </mxCell>
                <mxCell id="2" value="" style="rounded=0;whiteSpace=wrap;html=1;" vertex="1" parent="34">
                    <mxGeometry width="140" height="40" as="geometry"/>
                </mxCell>
                <mxCell id="14" value="Usuarios&lt;br&gt;(Administradores)" style="text;html=1;strokeColor=none;fillColor=none;align=center;verticalAlign=middle;whiteSpace=wrap;rounded=0;" vertex="1" parent="34">
                    <mxGeometry x="40" y="10" width="60" height="20" as="geometry"/>
                </mxCell>
                <mxCell id="35" value="Ejecuta Pipelines" style="text;html=1;strokeColor=none;fillColor=none;align=center;verticalAlign=middle;whiteSpace=wrap;rounded=0;labelBackgroundColor=none;fontFamily=Helvetica;" vertex="1" parent="1">
                    <mxGeometry x="249" y="224" width="110" height="30" as="geometry"/>
                </mxCell>
                <mxCell id="38" value="Ejecuta comandos (useradd, userdel)" style="text;html=1;strokeColor=none;fillColor=none;align=center;verticalAlign=middle;whiteSpace=wrap;rounded=0;labelBackgroundColor=none;fontFamily=Helvetica;" vertex="1" parent="1">
                    <mxGeometry x="260" y="320" width="214" height="30" as="geometry"/>
                </mxCell>
                <mxCell id="39" value="Genera resultados" style="text;html=1;strokeColor=none;fillColor=none;align=center;verticalAlign=middle;whiteSpace=wrap;rounded=0;labelBackgroundColor=none;fontFamily=Helvetica;" vertex="1" parent="1">
                    <mxGeometry x="250" y="424" width="110" height="30" as="geometry"/>
                </mxCell>
                <mxCell id="44" style="edgeStyle=none;html=1;entryX=0.5;entryY=0;entryDx=0;entryDy=0;fontFamily=Helvetica;fontSize=12;fontColor=default;" edge="1" parent="1" source="9" target="10">
                    <mxGeometry relative="1" as="geometry"/>
                </mxCell>
                <mxCell id="45" value="" style="group" vertex="1" connectable="0" parent="1">
                    <mxGeometry x="180" y="266" width="140" height="44" as="geometry"/>
                </mxCell>
                <mxCell id="37" value="" style="group;fontColor=#FFFFFF;" vertex="1" connectable="0" parent="45">
                    <mxGeometry width="140" height="44" as="geometry"/>
                </mxCell>
                <mxCell id="9" value="" style="rounded=0;whiteSpace=wrap;html=1;" vertex="1" parent="37">
                    <mxGeometry width="140" height="44" as="geometry"/>
                </mxCell>
                <mxCell id="22" value="&lt;div style=&quot;line-height: 16px;&quot;&gt;&lt;div style=&quot;&quot;&gt;Ejecutando Jobs&lt;/div&gt;&lt;/div&gt;" style="text;html=1;strokeColor=none;fillColor=none;align=center;verticalAlign=middle;whiteSpace=wrap;rounded=0;" vertex="1" parent="45">
                    <mxGeometry x="8.75" y="9.680000000000007" width="122.49999999999999" height="26.4" as="geometry"/>
                </mxCell>
            </root>
        </mxGraphModel>
    </diagram>
</mxfile>